<svg width="24" height="24" viewBox="0 0 24 24" fill="none" xmlns="http://www.w3.org/2000/svg">
  <path fill-rule="evenodd" clip-rule="evenodd" d="M18.4373 7.586H9.38592C7.19686 7.586 5.82397 9.13617 5.82397 11.3307V17.2514C5.82397 19.4459 7.18929 20.996 9.38592 20.996H18.4362C20.6339 20.996 22.0003 19.4459 22.0003 17.2514V11.3307C22.0003 9.13617 20.6339 7.586 18.4373 7.586Z" stroke="#087F5B" stroke-width="1.5" stroke-linecap="round" stroke-linejoin="round"/>
  <path d="M9.37183 12.0483H18.447" stroke="#087F5B" stroke-width="1.5" stroke-linecap="round" stroke-linejoin="round"/>
  <path d="M18.0852 7.58359L16.4994 4.9405C15.3632 3.06927 13.3979 2.43795 11.5116 3.57518L3.76284 8.23868C1.88403 9.36727 1.50568 11.4028 2.63426 13.2892L5.69569 18.3548C5.83839 18.6002 5.99622 18.8207 6.17675 19.0185V19.0261" stroke="#087F5B" stroke-width="1.5" stroke-linecap="round" stroke-linejoin="round"/>
</svg>
